<?xml version="1.0" encoding="utf-8"?>
<!-- Generator: Adobe Illustrator 23.0.1, SVG Export Plug-In . SVG Version: 6.00 Build 0)  -->
<svg version="1.1" id="Layer_1" xmlns="http://www.w3.org/2000/svg" xmlns:xlink="http://www.w3.org/1999/xlink" x="0px" y="0px"
	 viewBox="0 0 1310 698" style="enable-background:new 0 0 1310 698;" xml:space="preserve">
<style type="text/css">
	.st0{fill:url(#SVGID_1_);}
	.st1{opacity:0.2;}
	.st2{fill:#66B5D1;}
	.st3{fill:#8FD6F4;}
	.st4{fill:#0284B7;}
	.st5{fill:#48B4E8;}
	.st6{fill:#0093DD;}
	.st7{opacity:0.4;}
	.st8{fill:#0073A9;}
	.st9{fill:#0094DE;}
	.st10{fill:none;stroke:#031609;stroke-width:0.99;}
</style>
<title>hero</title>
<desc>Created with Sketch.</desc>
<g>
	<g>
		
			<linearGradient id="SVGID_1_" gradientUnits="userSpaceOnUse" x1="110.4406" y1="-0.2859" x2="110.4406" y2="0.9003" gradientTransform="matrix(1355.9917 4.7333 -2.8833 825.995 -149084.625 -506.0207)">
			<stop  offset="0.2155" style="stop-color:#42BDE8;stop-opacity:0.9882"/>
			<stop  offset="0.5251" style="stop-color:#1DADE2"/>
			<stop  offset="0.9987" style="stop-color:#14A9E0"/>
		</linearGradient>
		<polygon class="st0" points="-5.9,-21.5 1350.1,-16.7 1347.2,809.3 -8.8,804.5 		"/>
		<g class="st1">
			<path id="Shape" class="st2" d="M189.6,583.6c-32.5-32.8-86.3-33-119.1-0.5s-33,86.3-0.6,119.1s86.3,33,119.1,0.5
				C221.8,670.2,222,616.4,189.6,583.6z M179.8,693.5c-27.8,27.5-73.9,28-101.4,0.2c-7.2-7.2-12.7-15.9-16.2-25.5l0,0
				c-9.8-25.6-4-55.3,16.7-75.8c14.9-14.8,34.6-21.8,54.1-20.7h0.6h0.4c17.5,1.1,33.9,8.6,46.3,21
				C207.8,620.6,207.6,665.9,179.8,693.5z"/>
			<path class="st3" d="M195.6,577.6c-32.5-32.8-86.3-33-119.1-0.5s-33,86.3-0.5,119.1s86.3,33,119.1,0.6S228,610.4,195.6,577.6z
				 M185.8,687.5c-27.8,27.5-73.8,28-101.4,0.2c-7.2-7.2-12.7-15.9-16.2-25.5l0,0c-9.8-25.6-4-55.3,16.7-75.8
				c14.9-14.8,34.7-21.8,54.1-20.7h0.6h0.4c17.5,1.1,33.9,8.6,46.3,21C213.8,614.6,213.6,659.9,185.8,687.5z"/>
			<path class="st4" d="M1204.6,315.6c-32.5-32.8-86.3-33-119.1-0.5c-32.8,32.5-33,86.3-0.5,119.1s86.3,33,119.1,0.5
				C1236.8,402.2,1237,348.4,1204.6,315.6z M1194.8,425.5c-27.8,27.5-73.8,28-101.4,0.2c-7.2-7.2-12.7-15.9-16.2-25.5l0,0
				c-9.8-25.6-4-55.3,16.7-75.8c14.9-14.8,34.6-21.8,54.1-20.7h0.6h0.4c17.5,1.1,33.9,8.6,46.3,21
				C1222.8,352.6,1222.6,397.9,1194.8,425.5z"/>
			<path class="st5" d="M1213.6,308.6c-32.5-32.8-86.3-33-119.1-0.5c-32.8,32.5-33,86.3-0.5,119.1s86.3,33,119.1,0.5
				C1245.8,395.2,1246,341.4,1213.6,308.6z M1203.8,418.5c-27.8,27.5-73.9,28-101.4,0.2c-7.2-7.2-12.7-15.9-16.2-25.5l0,0
				c-9.8-25.6-4-55.3,16.7-75.8c14.9-14.8,34.6-21.8,54.1-20.7h0.6h0.4c17.5,1.1,33.9,8.6,46.3,21
				C1231.8,345.6,1231.6,390.9,1203.8,418.5z"/>
			<path class="st4" d="M1380.6,487.6c-32.5-32.8-86.3-33-119.1-0.6c-32.8,32.5-33,86.3-0.5,119.1s86.3,33,119.1,0.5
				C1412.8,574.2,1413,520.4,1380.6,487.6z M1370.8,597.5c-27.8,27.5-73.8,28-101.4,0.2c-7.2-7.2-12.7-15.9-16.2-25.5l0,0
				c-9.8-25.6-4-55.3,16.7-75.8c14.9-14.8,34.7-21.8,54.1-20.7h0.6h0.4c17.5,1.1,33.9,8.6,46.3,21
				C1398.8,524.6,1398.6,569.9,1370.8,597.5L1370.8,597.5z"/>
			<path class="st6" d="M1390.6,481.6c-32.5-32.8-86.3-33-119.1-0.6c-32.8,32.5-33,86.3-0.5,119.1s86.3,33,119.1,0.5
				C1422.8,568.2,1423,514.4,1390.6,481.6z M1380.8,591.5c-27.8,27.5-73.8,28-101.4,0.2c-7.2-7.2-12.7-15.9-16.2-25.5l0,0
				c-9.8-25.6-4-55.3,16.7-75.8c14.9-14.8,34.7-21.8,54.1-20.7h0.6h0.4c17.5,1.1,33.9,8.6,46.3,21
				C1408.8,518.6,1408.6,563.9,1380.8,591.5L1380.8,591.5z"/>
			<path class="st2" d="M1208.6-81.4c-32.5-32.8-86.3-33-119.1-0.6c-32.8,32.5-33,86.3-0.5,119.1s86.3,33,119.1,0.5
				S1241-48.6,1208.6-81.4z M1198.8,28.5c-27.8,27.5-73.8,28-101.4,0.2c-7.2-7.2-12.7-15.9-16.2-25.5l0,0
				c-9.8-25.6-4-55.3,16.7-75.8c14.9-14.8,34.7-21.8,54.1-20.7h0.6h0.4c17.5,1.1,33.9,8.6,46.3,21
				C1226.8-44.4,1226.6,0.9,1198.8,28.5z"/>
			<path class="st3" d="M1217.6-85.4c-32.5-32.8-86.3-33-119.1-0.6s-33,86.3-0.5,119.1s86.3,33,119.1,0.5S1250-52.6,1217.6-85.4z
				 M1207.8,24.5c-27.8,27.5-73.8,28-101.4,0.2c-7.2-7.2-12.7-15.9-16.2-25.4l0,0c-9.8-25.6-4-55.3,16.7-75.8
				c14.9-14.8,34.6-21.8,54.1-20.7c0.2,0,0.4,0,0.6,0h0.4c17.5,1.1,33.9,8.6,46.3,21C1235.8-48.4,1235.6-3.1,1207.8,24.5
				L1207.8,24.5z"/>
			<path class="st4" d="M1256.6-80.4c-32.5-32.8-86.3-33-119.1-0.5c-32.8,32.5-33,86.3-0.5,119.1s86.3,33,119.1,0.5
				C1288.8,6.2,1289-47.6,1256.6-80.4z M1246.9,29.5c-27.8,27.5-73.8,28-101.4,0.2c-7.2-7.2-12.7-15.9-16.2-25.5l0,0
				c-9.8-25.6-4-55.3,16.7-75.8c14.9-14.8,34.7-21.8,54.1-20.7h0.6h0.4c17.5,1.1,33.9,8.6,46.3,21
				C1274.8-43.4,1274.6,1.9,1246.9,29.5z"/>
			<path class="st5" d="M1264.6-84.4c-32.5-32.8-86.3-33-119.1-0.5c-32.8,32.5-33,86.3-0.5,119.1s86.3,33,119.1,0.5
				C1296.8,2.2,1297-51.6,1264.6-84.4z M1254.8,25.5c-27.8,27.5-73.9,28-101.4,0.2c-7.2-7.2-12.7-15.9-16.2-25.5l0,0
				c-9.8-25.6-4-55.3,16.7-75.8c14.9-14.8,34.6-21.8,54.1-20.7h0.6h0.4c17.5,1.1,33.9,8.6,46.3,21
				C1282.8-47.4,1282.6-2.1,1254.8,25.5L1254.8,25.5z"/>
			<g id="Group" transform="translate(992.000000, 47.000000)" class="st7">
				<path class="st8" d="M18.1-92.9c-44.5-45.1-118.3-45.4-163.2-0.8s-45.2,118.8-0.8,163.9S-27.6,115.6,17.3,71
					S62.6-47.8,18.1-92.9z M4.7,58.3c-38.1,37.9-101.2,38.6-138.9,0.3c-9.8-9.9-17.4-21.9-22.2-35l0,0
					c-13.4-35.2-5.5-76.1,22.8-104.3c20.5-20.4,47.5-30,74.1-28.5c0.3,0,0.6,0,0.9,0h0.5c23.9,1.5,46.5,11.8,63.4,28.9
					C43.1-42,42.8,20.5,4.7,58.3z"/>
			</g>
			<path class="st9" d="M1020.6-54.1c-44.4-45-118.2-45.4-163-0.8s-45.2,118.7-0.8,163.7s118.2,45.4,163,0.8S1065.1-9.1,1020.6-54.1
				z M1007.3,96.9c-38,37.8-101.1,38.5-138.8,0.3c-9.8-9.9-17.4-21.9-22.1-35l0,0c-13.4-35.1-5.5-76,22.8-104.2
				c20.5-20.4,47.5-30,74-28.5h0.9h0.5c23.9,1.5,46.5,11.8,63.4,28.9C1045.6-3.3,1045.4,59.1,1007.3,96.9z"/>
			<path class="st2" d="M1042.6,221.6c-32.5-32.8-86.3-33-119.1-0.5s-33,86.3-0.5,119.1s86.3,33,119.1,0.5
				C1074.8,308.2,1075,254.4,1042.6,221.6z M1032.8,331.5c-27.8,27.5-73.8,28-101.4,0.2c-7.2-7.2-12.7-15.9-16.2-25.5l0,0
				c-9.8-25.6-4-55.3,16.7-75.8c14.9-14.8,34.6-21.8,54.1-20.7h0.6h0.4c17.5,1.1,33.9,8.6,46.3,21
				C1060.8,258.6,1060.6,303.9,1032.8,331.5z"/>
			<path class="st3" d="M1049.6,216.6c-32.5-32.8-86.3-33-119.1-0.5s-33,86.3-0.6,119.1s86.3,33,119.1,0.5
				C1081.8,303.2,1082,249.4,1049.6,216.6z M1039.8,326.5c-27.8,27.5-73.9,28-101.4,0.2c-7.2-7.2-12.7-15.9-16.2-25.5l0,0
				c-9.8-25.6-4-55.3,16.7-75.8c14.9-14.8,34.6-21.8,54.1-20.7h0.6h0.4c17.5,1.1,33.9,8.6,46.3,21
				C1067.8,253.6,1067.6,298.9,1039.8,326.5z"/>
			<path class="st4" d="M857.6,288.6c-32.5-32.8-86.3-33-119.1-0.5s-33,86.3-0.5,119.1s86.3,33,119.1,0.5
				C889.8,375.2,890,321.4,857.6,288.6z M847.8,398.5c-27.8,27.5-73.8,28-101.4,0.2c-7.2-7.2-12.7-15.9-16.2-25.5l0,0
				c-9.8-25.6-4-55.3,16.7-75.8c14.9-14.8,34.6-21.8,54.1-20.7h0.6h0.4c17.5,1.1,33.9,8.6,46.3,21
				C875.8,325.6,875.6,370.9,847.8,398.5z"/>
			<path class="st5" d="M863.6,280.6c-32.5-32.8-86.3-33-119.1-0.5s-33,86.3-0.5,119.1s86.3,33,119.1,0.6
				C895.8,367.3,896,313.4,863.6,280.6z M853.8,390.5c-27.8,27.5-73.9,28-101.4,0.2c-7.2-7.2-12.7-15.9-16.2-25.5l0,0
				c-9.8-25.6-4-55.3,16.7-75.8c14.9-14.8,34.6-21.8,54.1-20.7h0.6h0.4c17.5,1.1,33.9,8.6,46.3,21
				C881.8,317.6,881.6,362.9,853.8,390.5L853.8,390.5z"/>
			<path class="st2" d="M685.6-70.4c-32.4-32.8-86.2-33-118.8-0.6s-31.6,86.3,0.8,119.1c15.5,15.7,36.6,24.6,58.7,24.7
				s43.2-8.6,58.9-24.2C717.8,16.3,718-37.6,685.6-70.4z M675.9,39.5c-27.7,27.5-73.7,28-101.2,0.2c-7.1-7.2-12.6-15.9-16.1-25.4
				l0,0c-9.8-25.6-4-55.3,16.6-75.8c14.9-14.8,34.6-21.8,54-20.7h0.6h0.4c17.4,1.1,33.9,8.6,46.2,21
				C703.8-33.4,703.6,11.9,675.9,39.5L675.9,39.5z"/>
			<path class="st3" d="M693.6-76.4c-32.5-32.8-86.3-33-119.1-0.5s-33,86.3-0.5,119.1s86.3,33,119.1,0.6
				C725.8,10.3,726-43.6,693.6-76.4z M683.8,33.5c-27.8,27.5-73.9,28-101.4,0.2c-7.2-7.2-12.7-15.9-16.2-25.5l0,0
				c-9.8-25.6-4-55.3,16.7-75.8c14.9-14.8,34.6-21.8,54.1-20.7h0.6h0.4c17.5,1.1,33.9,8.6,46.3,21C711.8-39.4,711.6,5.9,683.8,33.5z
				"/>
			<path class="st2" d="M741.6,240.5c-28.4-28.7-75.5-28.9-104.2-0.5s-28.9,75.5-0.5,104.2s75.5,28.9,104.2,0.5
				S770,269.2,741.6,240.5z M733.1,336.6c-24.3,24.1-64.6,24.5-88.7,0.2c-6.3-6.3-11.1-13.9-14.1-22.3l0,0
				c-8.6-22.4-3.5-48.4,14.6-66.3c13.1-13,30.3-19.1,47.3-18.1h0.6h0.3c15.3,1,29.7,7.5,40.5,18.4
				C757.6,272.9,757.4,312.6,733.1,336.6z"/>
			<path class="st3" d="M749.6,235.5c-28.4-28.7-75.5-28.9-104.2-0.5s-28.9,75.5-0.5,104.2s75.5,28.9,104.2,0.5
				C777.8,311.3,778,264.2,749.6,235.5z M741.1,331.6c-24.3,24.1-64.6,24.5-88.7,0.2c-6.3-6.3-11.1-13.9-14.1-22.3l0,0
				c-8.6-22.4-3.5-48.4,14.6-66.3c13.1-13,30.3-19.1,47.3-18.1h0.5h0.3c15.3,1,29.7,7.5,40.5,18.4
				C765.6,267.9,765.4,307.6,741.1,331.6z"/>
			<g transform="translate(603.000000, 601.000000)" class="st7">
				<path class="st8" d="M-34.8-102.2c-32.5-32.8-86.5-33.1-119.4-0.6s-33.1,86.5-0.6,119.4s86.5,33.1,119.4,0.6
					S-2.3-69.4-34.8-102.2z M-44.6,7.9c-27.9,27.6-74,28.1-101.6,0.2c-7.2-7.2-12.7-15.9-16.2-25.5l0,0c-9.8-25.6-4-55.4,16.7-76
					c15-14.8,34.7-21.8,54.2-20.8h0.6h0.4c17.5,1.1,34,8.6,46.4,21C-16.5-65.2-16.7-19.7-44.6,7.9L-44.6,7.9z"/>
			</g>
			<path class="st3" d="M575.6,493.6c-32.5-32.8-86.3-33-119.1-0.5s-33,86.3-0.5,119.1s86.3,33,119.1,0.5
				C607.8,580.2,608,526.4,575.6,493.6z M565.8,603.5c-27.8,27.5-73.9,28-101.4,0.2c-7.2-7.2-12.7-15.9-16.2-25.5l0,0
				c-9.8-25.6-4-55.3,16.7-75.8c14.9-14.8,34.6-21.8,54.1-20.7h0.6h0.4c17.5,1.1,33.9,8.6,46.3,21
				C593.8,530.6,593.6,575.9,565.8,603.5z"/>
			<path class="st2" d="M794.6,669.6c-32.5-32.8-86.3-33-119.1-0.5s-33,86.3-0.6,119.1s86.3,33,119.1,0.5
				C826.8,756.2,827,702.4,794.6,669.6z M784.8,779.5c-27.8,27.5-73.9,28-101.4,0.2c-7.2-7.2-12.7-15.9-16.2-25.5l0,0
				c-9.8-25.6-4-55.3,16.7-75.8c14.9-14.8,34.6-21.8,54.1-20.7h0.6h0.4c17.5,1.1,33.9,8.6,46.3,21
				C812.8,706.6,812.6,751.9,784.8,779.5L784.8,779.5z"/>
			<path class="st3" d="M802.6,664.6c-32.5-32.8-86.3-33-119.1-0.6s-33,86.3-0.5,119.1s86.3,33,119.1,0.5
				C834.8,751.2,835,697.4,802.6,664.6z M792.8,774.5c-27.8,27.5-73.8,28-101.4,0.2c-7.2-7.2-12.7-15.9-16.2-25.5l0,0
				c-9.8-25.6-4-55.3,16.7-75.8c14.9-14.8,34.6-21.8,54.1-20.7h0.6h0.4c17.5,1.1,33.9,8.6,46.3,21
				C820.8,701.6,820.6,746.9,792.8,774.5L792.8,774.5z"/>
			<path class="st4" d="M598.7,156.5c-37.7-37.8-100.2-38.1-138.2-0.6s-38.3,99.7-0.6,137.5S560,331.4,598,294
				C636.1,256.5,636.3,194.3,598.7,156.5z M587.4,283.3c-32.2,31.8-85.7,32.3-117.7,0.3c-8.3-8.3-14.7-18.4-18.8-29.4l0,0
				c-11.4-29.5-4.6-63.9,19.3-87.5c17.3-17.1,40.2-25.2,62.8-23.9h0.7h0.5c20.3,1.3,39.4,9.9,53.7,24.2
				C619.9,199.1,619.6,251.5,587.4,283.3z"/>
			<path class="st5" d="M608.7,152.5c-37.7-37.8-100.2-38.1-138.2-0.7c-38,37.5-38.3,99.7-0.6,137.5C507.5,327.2,570,327.4,608,290
				C646.1,252.5,646.4,190.3,608.7,152.5z M597.4,279.3c-32.2,31.8-85.7,32.3-117.7,0.3c-8.3-8.3-14.7-18.4-18.8-29.4l0,0
				c-11.4-29.5-4.6-63.9,19.3-87.5c17.3-17.1,40.2-25.2,62.8-23.9h0.7h0.5c20.3,1.3,39.4,9.9,53.7,24.2
				C629.9,195.1,629.6,247.5,597.4,279.3z"/>
			<g transform="translate(282.000000, 15.000000)" class="st7">
				<path class="st4" d="M-7-97.4c-38.8-39.2-103.3-39.5-142.4-0.7s-39.5,103.3-0.7,142.5S-46.8,83.9-7.6,45.1S31.9-58.2-7-97.4z
					 M-18.6,34c-33.2,32.9-88.3,33.5-121.3,0.3c-8.6-8.6-15.2-19-19.3-30.4l0,0c-11.7-30.6-4.8-66.2,19.9-90.6
					c17.9-17.7,41.5-26.1,64.7-24.8c0.3,0,0.5,0,0.8,0h0.5c20.9,1.3,40.6,10.3,55.4,25.1C14.9-53.2,14.6,1.1-18.6,34z"/>
			</g>
			<path class="st5" d="M285.8-90.5C247-129.7,182.5-130,143.3-91.2s-39.5,103.3-0.7,142.5S246,90.8,285.2,52S324.6-51.3,285.8-90.5
				z M274.2,40.9c-33.2,32.9-88.4,33.5-121.3,0.3c-8.6-8.6-15.2-19-19.3-30.5l0,0c-11.7-30.6-4.8-66.2,19.9-90.6
				c17.9-17.7,41.5-26.1,64.7-24.8h0.8h0.5c20.9,1.3,40.6,10.3,55.4,25.1C307.7-46.3,307.4,8,274.2,40.9z"/>
			<path class="st2" d="M251.6,187.6c-32.5-32.8-86.3-33-119.1-0.5s-33,86.3-0.5,119.1s86.3,33,119.1,0.6S284,220.4,251.6,187.6z
				 M241.8,297.5c-27.8,27.5-73.9,28-101.4,0.2c-7.2-7.2-12.7-15.9-16.2-25.5l0,0c-9.8-25.6-4-55.3,16.7-75.8
				c14.9-14.8,34.6-21.8,54.1-20.7h0.6h0.4c17.5,1.1,33.9,8.6,46.3,21C269.8,224.6,269.6,269.9,241.8,297.5L241.8,297.5z"/>
			<path class="st3" d="M259.6,181.6c-32.5-32.8-86.3-33-119.1-0.5s-33,86.3-0.5,119.1s86.3,33,119.1,0.5
				C291.8,268.2,292,214.4,259.6,181.6z M249.8,291.5c-27.8,27.5-73.8,28-101.4,0.2c-7.2-7.2-12.7-15.9-16.2-25.5l0,0
				c-9.8-25.6-4-55.3,16.7-75.8c14.9-14.8,34.7-21.8,54.1-20.7h0.6h0.4c17.5,1.1,33.9,8.6,46.3,21
				C277.8,218.6,277.6,263.9,249.8,291.5z"/>
			<g transform="translate(461.000000, 435.000000)" class="st7">
				<path class="st8" d="M-18.6-99.3c-36.3-36.6-96.5-36.9-133-0.6s-36.9,96.5-0.6,133s96.5,36.9,133,0.6S17.7-62.7-18.6-99.3z
					 M-29.4,23.4c-31,30.7-82.5,31.3-113.3,0.3c-8-8.1-14.2-17.8-18-28.4l0,0c-11-28.5-4.5-61.8,18.6-84.6
					c16.7-16.5,38.7-24.3,60.4-23.2h0.7h0.4c19.5,1.2,37.9,9.6,51.7,23.4C1.9-58.1,1.6-7.4-29.4,23.4L-29.4,23.4z"/>
			</g>
			<path class="st9" d="M450.7,327.6c-36.3-36.7-96.6-36.9-133.3-0.6s-36.9,96.6-0.6,133.3c36.3,36.6,96.6,36.9,133.3,0.6
				C486.7,424.5,487,364.2,450.7,327.6z M439.8,450.5c-31.1,30.8-82.6,31.3-113.4,0.3c-8-8.1-14.2-17.8-18.1-28.5l0,0
				c-11-28.6-4.5-61.9,18.6-84.8c16.7-16.6,38.8-24.4,60.5-23.2h0.7h0.4c19.6,1.2,38,9.6,51.8,23.5
				C471.1,368.9,470.9,419.7,439.8,450.5L439.8,450.5z"/>
			<g transform="translate(79.000000, 458.000000)" class="st7">
				<path class="st6" d="M12.5-93.9c-43.2-43.6-114.9-43.9-158.5-0.7s-44,114.9-0.8,158.5s114.9,43.9,158.5,0.7S55.7-50.3,12.5-93.9
					z M-0.5,52.3c-37,36.6-98.3,37.3-134.9,0.3c-9.5-9.6-16.9-21.2-21.5-33.9l0,0c-13.1-34-5.3-73.6,22.2-100.9
					c19.9-19.7,46.1-29,72-27.6h0.8h0.5c23.3,1.5,45.2,11.4,61.6,27.9C36.8-44.7,36.5,15.6-0.5,52.3L-0.5,52.3z"/>
			</g>
			<path class="st5" d="M99.6,357.7c-43-43.5-114.5-43.8-158-0.7s-43.8,114.6-0.7,158.1S55.5,558.9,99,515.8S142.7,401.2,99.6,357.7
				z M86.7,503.5c-36.9,36.5-98,37.2-134.6,0.3c-9.5-9.6-16.8-21.1-21.4-33.8l0,0c-13-33.9-5.3-73.4,22.1-100.6
				c19.8-19.6,46-28.9,71.8-27.5h0.8h0.5c23.2,1.5,45,11.4,61.4,27.9C123.9,406.8,123.6,467,86.7,503.5z"/>
			<g transform="translate(50.000000, 325.000000)" class="st7">
				<path class="st8" d="M-35-102.2c-32.5-32.8-86.5-33.1-119.4-0.6s-33.1,86.5-0.6,119.4s86.6,33.1,119.4,0.6S-2.4-69.3-35-102.2z
					 M-44.7,8c-27.9,27.6-74,28.1-101.6,0.2C-153.5,1-159-7.7-162.5-17.3l0,0c-9.8-25.6-4-55.5,16.7-76c15-14.8,34.7-21.8,54.2-20.8
					h0.6h0.4c17.5,1.1,34,8.6,46.4,21C-16.7-65.1-16.9-19.6-44.7,8z"/>
			</g>
			<path class="st9" d="M23.6,217.6c-32.5-32.8-86.3-33-119.1-0.5s-33,86.3-0.5,119.1s86.3,33,119.1,0.5S56,250.4,23.6,217.6z
				 M13.8,327.5c-27.8,27.5-73.9,28-101.4,0.2c-7.2-7.2-12.7-15.9-16.2-25.5l0,0c-9.8-25.6-4-55.3,16.7-75.8
				c14.9-14.8,34.6-21.8,54.1-20.7h0.6h0.4c17.5,1.1,33.9,8.6,46.3,21C41.8,254.6,41.6,299.9,13.8,327.5z"/>
			<g transform="translate(467.000000, 814.000000)" class="st7">
				<path class="st6" d="M-4.8-96.9c-39.3-39.7-104.6-40-144.3-0.7s-40,104.6-0.7,144.3s104.6,40,144.3,0.7S34.5-57.2-4.8-96.9z
					 M-16.6,36.2c-33.7,33.3-89.5,33.9-122.8,0.3c-8.7-8.7-15.4-19.3-19.6-30.8l0,0c-11.9-31-4.8-67,20.2-91.8
					c18.1-17.9,42-26.4,65.5-25.1h0.8h0.5c21.2,1.3,41.1,10.4,56.1,25.4C17.3-52.1,17,2.9-16.6,36.2L-16.6,36.2z"/>
			</g>
			<path class="st6" d="M469.4,712.9c-39.4-39.8-104.8-40.1-144.6-0.7s-40.1,104.8-0.7,144.6c39.4,39.8,104.8,40.1,144.6,0.7
				S508.8,752.7,469.4,712.9z M457.6,846.3c-33.7,33.4-89.7,34-123.1,0.3c-8.7-8.8-15.4-19.3-19.6-30.9l0,0
				c-11.9-31-4.9-67.2,20.2-92c18.1-18,42.1-26.5,65.7-25.2h0.8h0.5c21.2,1.3,41.2,10.4,56.2,25.5
				C491.5,757.8,491.3,812.9,457.6,846.3L457.6,846.3z"/>
			<g transform="translate(908.000000, 628.000000)" class="st7">
				<path class="st6" d="M14.7,61.3C56.6,16.5,54.2-55.2,9.4-97.1s-116.5-39.5-158.4,5.3s-39.5,116.5,5.3,158.4
					S-27.2,106.1,14.7,61.3z M-131.9,53.9c-38-35.5-41-96.8-5.5-134.8c9.2-9.9,20.5-17.7,33-22.8l0,0C-70.8-118-31-111.8-2.7-85.4
					c20.4,19.1,30.8,45,30.3,70.9c0,0.3,0,0.6,0,0.8s0,0.3,0,0.5C27,10.1,17.9,32.4,2,49.4C-33.5,87.4-93.9,89.5-131.9,53.9
					L-131.9,53.9z"/>
			</g>
			<path class="st6" d="M929.9,697.7c41.8-44.7,39.4-116.2-5.3-158s-116.2-39.4-158,5.3s-39.4,116.2,5.3,158
				S888.1,742.4,929.9,697.7z M783.7,690.4c-37.9-35.4-40.9-96.5-5.4-134.4c9.2-9.9,20.5-17.6,33-22.7l0,0
				c33.4-14.3,73.2-8.1,101.3,18.3c20.4,19.1,30.7,44.9,30.2,70.7c0,0.3,0,0.6,0,0.8s0,0.3,0,0.5c-0.6,23.2-9.7,45.4-25.5,62.4
				C881.8,723.8,821.6,725.8,783.7,690.4L783.7,690.4z"/>
			<g transform="translate(1093.000000, 594.000000)" class="st7">
				<path class="st8" d="M-33.1,15.1c31.6-33.8,29.8-87.7-4-119.3s-87.7-29.8-119.3,4s-29.8,87.7,4,119.3S-64.7,48.8-33.1,15.1z
					 M-143.5,9.5c-28.6-26.8-30.9-72.9-4.1-101.5c7-7.4,15.4-13.3,24.9-17.2l0,0c25.2-10.8,55.3-6.1,76.5,13.8
					C-30.8-81-23.1-61.5-23.4-42.1c0,0.2,0,0.4,0,0.6v0.4c-0.4,17.5-7.3,34.3-19.3,47.2C-69.4,34.8-114.9,36.3-143.5,9.5z"/>
			</g>
			<path class="st3" d="M1066.2,617.4c31.5-33.7,29.7-87.5-4-119s-87.5-29.7-119,4s-29.7,87.5,4,119
				C980.9,652.9,1034.7,651.1,1066.2,617.4z M956.1,611.9c-28.6-26.7-30.8-72.7-4.1-101.3c6.9-7.4,15.4-13.3,24.8-17.1l0,0
				c25.2-10.8,55.1-6.1,76.4,13.8c15.4,14.4,23.1,33.8,22.8,53.2c0,0.2,0,0.4,0,0.6v0.4c-0.4,17.5-7.3,34.2-19.2,47
				C1030,637.1,984.7,638.6,956.1,611.9z"/>
			<rect x="-10.3" y="-26.1" class="st10" width="1329" height="803"/>
			<path class="st4" d="M1187.6,659.6c-32.5-32.8-86.3-33-119.1-0.5c-32.8,32.5-33,86.3-0.5,119.1s86.3,33,119.1,0.6
				C1219.8,746.3,1220,692.4,1187.6,659.6z M1177.8,769.5c-27.8,27.5-73.9,28-101.4,0.2c-7.2-7.2-12.7-15.9-16.2-25.5l0,0
				c-9.8-25.6-4-55.3,16.7-75.8c14.9-14.8,34.6-21.8,54.1-20.7h0.6h0.4c17.5,1.1,33.9,8.6,46.3,21
				C1205.8,696.6,1205.6,741.9,1177.8,769.5z"/>
			<path class="st5" d="M1195.6,654.6c-32.5-32.8-86.3-33-119.1-0.5c-32.8,32.5-33,86.3-0.6,119.1c32.5,32.8,86.3,33,119.1,0.5
				C1227.8,741.2,1228,687.4,1195.6,654.6z M1185.8,764.5c-27.8,27.5-73.9,28-101.4,0.2c-7.2-7.2-12.7-15.9-16.2-25.5l0,0
				c-9.8-25.6-4-55.3,16.7-75.8c14.9-14.8,34.6-21.8,54.1-20.7h0.6h0.4c17.5,1.1,33.9,8.6,46.3,21
				C1213.8,691.6,1213.6,736.9,1185.8,764.5z"/>
		</g>
	</g>
</g>
</svg>
